<?xml version="1.0" standalone="no"?>
<!DOCTYPE svg PUBLIC "-//W3C//DTD SVG 20010904//EN"
 "http://www.w3.org/TR/2001/REC-SVG-20010904/DTD/svg10.dtd">
<svg version="1.0" xmlns="http://www.w3.org/2000/svg"
 width="500.000000pt" height="500.000000pt" viewBox="0 0 500.000000 500.000000"
 preserveAspectRatio="xMidYMid meet">

<g transform="translate(0.000000,500.000000) scale(0.100000,-0.100000)"
fill="#000000" stroke="none">
<path d="M2210 4979 c-154 -23 -205 -33 -313 -60 -441 -110 -810 -315 -1136
-633 -482 -470 -751 -1096 -751 -1746 0 -238 15 -386 56 -573 168 -758 661
-1381 1359 -1717 203 -98 369 -152 605 -200 157 -31 500 -47 693 -31 694 56
1310 396 1756 968 214 275 367 603 450 964 107 463 71 973 -100 1434 -274 734
-902 1307 -1664 1519 -235 65 -408 86 -684 85 -119 -1 -241 -5 -271 -10z
m-1150 -1135 c119 -85 166 -144 185 -232 8 -37 -3 -172 -14 -172 -4 0 -22 30
-40 68 -32 65 -109 192 -117 192 -2 0 12 -32 32 -72 54 -108 101 -243 81 -231
-7 3 -50 35 -96 71 -70 55 -88 74 -112 126 -23 48 -29 75 -29 128 0 82 17 168
34 168 7 0 41 -21 76 -46z m977 -240 c80 -39 152 -109 193 -190 21 -42 25 -62
25 -144 0 -87 -3 -100 -30 -148 -37 -67 -123 -147 -195 -181 -51 -24 -65 -26
-190 -26 -131 0 -140 2 -300 48 -271 79 -385 75 -486 -17 -63 -56 -89 -122
-81 -205 6 -76 27 -115 96 -179 56 -53 48 -59 -21 -14 -75 49 -120 143 -121
249 0 64 4 81 36 147 43 86 85 127 176 170 100 46 192 47 391 5 211 -44 338
-46 424 -4 121 57 171 143 148 253 -15 69 -50 116 -113 148 -140 71 -274 42
-464 -101 -136 -103 -191 -122 -260 -91 l-30 14 40 -5 c84 -10 111 5 307 171
177 150 297 177 455 100z m-1060 -188 c28 -8 84 -31 123 -52 l71 -39 -118 -12
c-121 -13 -262 -38 -272 -50 -3 -3 17 -3 44 0 107 13 243 17 310 10 l70 -8
-116 -72 c-129 -79 -195 -103 -278 -102 -69 1 -118 18 -245 88 -92 50 -98 55
-80 68 71 53 236 150 278 165 62 21 143 23 213 4z m1649 -493 c41 -36 74 -73
74 -81 0 -7 -16 -34 -36 -58 -20 -25 -35 -46 -33 -47 2 -2 51 -25 109 -51 58
-27 134 -62 170 -79 72 -33 177 -107 229 -161 l34 -35 -29 -12 c-151 -58 -303
-100 -439 -121 -115 -17 -371 -14 -480 5 -110 21 -315 77 -315 87 0 19 87 113
143 156 68 51 174 104 252 124 43 11 165 93 165 110 0 3 -12 13 -27 23 -76 46
-77 39 17 127 47 44 86 80 88 80 2 0 37 -30 78 -67z m1131 -469 c156 -32 248
-96 299 -207 26 -56 29 -72 29 -167 0 -90 -3 -111 -23 -147 -33 -63 -74 -106
-129 -133 -41 -21 -61 -25 -138 -24 -101 1 -179 26 -227 72 -36 33 -35 66 1
103 58 58 121 26 121 -61 l0 -50 78 0 c67 0 84 4 118 26 64 42 88 85 92 169 4
80 -4 104 -61 170 -53 62 -117 90 -202 90 -124 -1 -207 -61 -328 -239 -151
-222 -338 -372 -592 -475 l-29 -13 87 -85 c48 -47 87 -87 87 -89 0 -2 -186 -4
-412 -4 l-413 0 95 95 c80 80 91 95 74 101 -244 80 -349 141 -649 375 -238
186 -470 347 -587 409 -27 14 -48 28 -48 31 0 3 30 16 66 28 77 28 141 25 219
-9 105 -45 218 -70 404 -89 131 -14 226 -30 324 -55 196 -51 350 -69 527 -63
229 8 388 47 725 177 198 76 343 95 492 64z"/>
<path d="M2194 2585 c-54 -27 -167 -123 -185 -158 -13 -24 -6 -19 159 105 106
80 114 97 26 53z"/>
<path d="M1860 1962 c0 -15 71 -102 116 -142 89 -80 241 -151 321 -149 36 0
37 1 13 11 -189 83 -233 111 -422 266 -15 13 -28 19 -28 14z"/>
</g>
</svg>
