<?xml version="1.0" standalone="no"?>
<!DOCTYPE svg PUBLIC "-//W3C//DTD SVG 20010904//EN"
 "http://www.w3.org/TR/2001/REC-SVG-20010904/DTD/svg10.dtd">
<svg version="1.0" xmlns="http://www.w3.org/2000/svg"
 width="509.000000pt" height="527.000000pt" viewBox="0 0 509.000000 527.000000"
 preserveAspectRatio="xMidYMid meet">

<g transform="translate(0.000000,527.000000) scale(0.100000,-0.100000)"
fill="#000000" stroke="none">
<path d="M1516 3988 c-57 -87 -95 -226 -103 -374 -7 -133 6 -230 52 -394 84
-298 63 -529 -73 -792 -2 -5 282 -8 632 -8 l636 0 21 42 c99 195 124 473 63
703 -14 55 -35 134 -46 175 -15 57 -20 108 -20 215 -1 165 18 254 81 378 l39
77 -634 0 -634 0 -14 -22z m1164 -51 c0 -2 -9 -30 -21 -63 -33 -94 -49 -198
-49 -313 0 -127 9 -183 58 -356 36 -128 37 -133 36 -305 0 -161 -3 -182 -27
-263 -15 -49 -34 -102 -42 -118 l-16 -29 -560 0 c-530 0 -561 1 -554 18 50
124 75 254 75 397 0 116 -15 204 -60 362 -59 210 -57 424 7 588 8 22 19 50 24
63 l9 22 560 0 c308 0 560 -2 560 -3z"/>
<path d="M2431 3784 c-1 -23 -4 -69 -8 -103 l-6 -63 -44 7 c-23 3 -43 3 -43
-1 0 -4 19 -75 43 -158 l42 -151 3 100 c1 55 4 105 7 112 3 8 16 8 51 -3 26
-8 49 -13 50 -11 3 2 -78 274 -90 301 -2 6 -5 -7 -5 -30z"/>
<path d="M2075 3693 c-93 -159 -103 -227 -42 -288 44 -44 95 -52 150 -26 79
38 97 112 51 211 -33 71 -97 180 -106 180 -4 0 -28 -35 -53 -77z m135 -194 c0
-9 -9 -24 -20 -34 -17 -15 -24 -16 -45 -7 -32 15 -33 52 -3 99 l21 35 23 -38
c13 -22 24 -46 24 -55z"/>
<path d="M1678 3139 c-21 -12 -23 -40 -6 -57 17 -17 609 -17 626 0 18 18 14
46 -7 58 -26 14 -590 13 -613 -1z"/>
<path d="M2438 3139 c-24 -13 -23 -46 1 -59 27 -14 114 -13 129 2 18 18 14 46
-7 58 -25 13 -101 13 -123 -1z"/>
<path d="M1694 2936 c-3 -8 -4 -23 -2 -33 3 -17 22 -18 317 -18 282 0 315 2
324 17 8 12 7 21 -2 32 -12 14 -53 16 -323 16 -259 0 -310 -2 -314 -14z"/>
<path d="M2462 2941 c-8 -4 -12 -19 -10 -32 3 -23 7 -24 72 -24 53 0 71 4 79
17 19 30 -8 48 -72 48 -31 0 -62 -4 -69 -9z"/>
<path d="M1677 2743 c-16 -16 -6 -53 16 -58 12 -3 154 -4 316 -3 258 3 295 5
304 19 6 9 7 24 4 33 -6 14 -39 16 -320 16 -173 0 -317 -3 -320 -7z"/>
<path d="M2433 2734 c-13 -34 11 -49 77 -49 66 0 90 15 77 49 -5 13 -21 16
-77 16 -56 0 -72 -3 -77 -16z"/>
<path d="M2170 1001 c0 -220 1 -229 20 -234 20 -5 20 0 20 229 0 227 -1 234
-20 234 -19 0 -20 -7 -20 -229z"/>
<path d="M2716 1213 c-4 -9 0 -23 9 -32 13 -14 17 -14 31 1 9 9 14 24 11 32
-8 21 -43 20 -51 -1z"/>
<path d="M2890 1215 c-11 -13 -11 -18 2 -31 20 -20 50 -7 46 20 -4 26 -30 32
-48 11z"/>
<path d="M1330 983 l0 -218 142 5 c88 3 152 10 165 18 70 40 71 153 1 184 -33
15 -35 24 -9 37 51 28 50 126 -2 165 -25 18 -45 21 -163 24 l-134 4 0 -219z
m271 158 c46 -47 35 -101 -26 -127 -21 -8 -69 -14 -120 -14 l-85 0 0 85 0 85
101 0 c98 0 101 -1 130 -29z m-2 -182 c17 -6 36 -19 41 -29 16 -30 12 -76 -9
-101 -18 -22 -27 -24 -140 -27 l-121 -4 0 86 0 86 99 0 c54 0 112 -5 130 -11z"/>
<path d="M1813 1073 c-18 -9 -33 -20 -33 -24 0 -17 21 -19 49 -4 76 39 171 6
171 -61 l0 -34 -62 0 c-119 0 -168 -29 -168 -98 0 -65 80 -107 160 -83 21 6
43 18 50 26 18 22 30 18 30 -8 0 -14 6 -24 15 -24 13 0 15 21 15 123 0 136 -9
168 -51 190 -37 19 -136 17 -176 -3z m187 -191 c0 -58 -35 -87 -107 -87 -61 0
-83 17 -83 66 0 43 32 59 117 59 l73 0 0 -38z"/>
<path d="M2363 1075 c-33 -14 -41 -29 -24 -39 5 -3 22 1 37 9 16 8 51 15 77
15 58 0 97 -32 97 -78 l0 -29 -85 -5 c-113 -6 -140 -24 -140 -93 0 -41 4 -51
28 -69 41 -30 124 -29 166 2 30 22 31 22 31 2 0 -14 7 -20 21 -20 20 0 20 4
17 131 l-3 131 -33 29 c-28 26 -40 29 -95 29 -34 -1 -77 -7 -94 -15z m187
-186 c0 -60 -45 -99 -115 -99 -39 0 -85 35 -85 65 0 9 11 27 25 40 21 22 33
25 100 25 l75 0 0 -31z"/>
<path d="M2720 897 c0 -180 -1 -195 -20 -212 -14 -13 -29 -16 -55 -12 -36 6
-58 -9 -34 -24 20 -13 91 -10 110 4 35 27 39 54 39 246 0 184 -1 191 -20 191
-19 0 -20 -7 -20 -193z"/>
<path d="M2890 931 c0 -150 1 -159 20 -164 19 -5 20 0 20 159 0 157 -1 164
-20 164 -19 0 -20 -7 -20 -159z"/>
</g>
</svg>
